<?xml version="1.0" encoding="utf-8"?>
<svg viewBox="92.4208 65.3415 327.4591 381.5302" width="327.459pt" height="381.53pt" xmlns="http://www.w3.org/2000/svg">
  <g transform="matrix(0.10000000149011612, 0, 0, -0.10000000149011612, 0, 512)" fill="#000000" stroke="none">
    <path d="M2265 4455 c-297 -76 -506 -373 -466 -666 13 -94 43 -184 73 -216 42 -44 118 -22 133 40 4 13 -3 46 -15 78 -31 77 -38 201 -15 285 58 216 285 362 503 324 194 -33 341 -182 374 -378 13 -75 5 -134 -33 -260 -12 -37 -11 -47 2 -70 19 -34 60 -49 96 -36 57 20 103 156 103 301 -1 335 -254 596 -590 609 -73 2 -123 -1 -165 -11z"/>
    <path d="M1204 4250 c-24 -10 -253 -250 -272 -286 -7 -13 -10 -35 -6 -48 5 -22 167 -205 245 -278 38 -36 81 -37 114 -3 38 37 33 78 -16 136 -48 58 -59 52 146 69 86 7 149 17 162 26 31 20 45 51 38 84 -12 54 -30 61 -212 77 -92 9 -170 17 -172 19 -2 2 15 24 38 49 31 34 41 53 41 78 0 31 -29 77 -50 77 -4 0 -14 2 -22 4 -7 3 -22 1 -34 -4z"/>
    <path d="M3525 4248 c-60 -32 -62 -90 -4 -153 23 -25 40 -47 38 -49 -2 -2 -80 -11 -174 -19 -162 -15 -171 -16 -192 -42 -37 -42 -27 -96 22 -122 11 -6 83 -16 160 -23 204 -16 194 -11 146 -67 -51 -58 -57 -109 -15 -142 52 -41 76 -30 178 77 225 234 222 213 49 398 -111 119 -154 155 -181 154 -4 0 -16 -6 -27 -12z"/>
    <path d="M2362 4089 c-78 -15 -136 -62 -171 -139 -20 -44 -21 -61 -21 -897 0 -840 0 -853 -20 -873 -27 -27 -52 -25 -82 8 -14 15 -100 127 -191 248 -146 195 -171 224 -214 245 -71 35 -162 34 -226 -4 -92 -54 -138 -155 -116 -257 8 -39 53 -114 193 -328 100 -152 271 -417 380 -587 109 -171 214 -335 234 -365 48 -73 211 -236 288 -288 453 -304 1035 -259 1429 110 161 150 268 343 327 588 19 78 21 124 25 567 5 562 5 565 -75 643 -77 75 -177 91 -270 44 -29 -14 -64 -41 -78 -60 -27 -35 -63 -45 -82 -21 -5 6 -13 33 -16 59 -16 109 -121 198 -235 198 -84 0 -173 -55 -212 -131 -29 -59 -55 -53 -64 14 -15 118 -83 201 -188 227 -58 15 -137 0 -190 -37 -51 -36 -97 -115 -97 -170 0 -51 -8 -73 -26 -73 -12 0 -14 85 -14 538 0 339 -4 551 -10 574 -32 115 -156 189 -278 167z"/>
  </g>
</svg>